<?xml version="1.0" standalone="no"?>
<!DOCTYPE svg PUBLIC "-//W3C//DTD SVG 20010904//EN"
 "http://www.w3.org/TR/2001/REC-SVG-20010904/DTD/svg10.dtd">
<svg version="1.0" xmlns="http://www.w3.org/2000/svg"
 width="300" height="300" viewBox="0 0 1969.000000 954.000000"
 preserveAspectRatio="xMidYMid meet">

<g transform="translate(0.000000,954.000000) scale(0.100000,-0.100000)"
fill="#000000" stroke="none">
<path d="M13216 9530 c-171 -20 -358 -90 -490 -184 -267 -190 -473 -538 -586
-986 -33 -129 -60 -279 -60 -327 0 -18 -4 -33 -9 -33 -5 0 -46 20 -92 44 -350
184 -859 285 -1302 256 -673 -42 -1428 -302 -1752 -602 l-61 -56 -58 141
c-131 317 -252 544 -353 663 -106 125 -362 317 -588 442 -283 155 -622 266
-930 302 -123 15 -460 15 -615 1 -505 -48 -1001 -209 -1349 -437 -213 -141
-484 -481 -742 -931 l-64 -112 -64 72 c-830 925 -1758 1094 -2665 486 -169
-114 -299 -224 -461 -390 -410 -422 -647 -858 -815 -1504 -105 -402 -153 -771
-153 -1175 -1 -584 102 -1024 335 -1434 251 -442 509 -738 746 -858 l77 -38
-41 0 c-59 0 -187 -35 -247 -67 -104 -56 -195 -173 -227 -292 -74 -277 31
-754 235 -1061 126 -190 322 -365 499 -446 68 -31 227 -67 421 -96 129 -20
191 -23 450 -23 314 0 384 6 608 55 232 51 520 174 677 291 390 289 611 803
614 1431 1 184 7 226 21 151 12 -67 86 -284 142 -417 385 -914 1026 -1518
1795 -1690 398 -89 782 -72 1147 50 105 35 358 161 466 231 401 262 778 707
1036 1220 l87 172 88 -192 c133 -288 230 -432 396 -593 147 -142 261 -198 465
-229 130 -20 459 -20 628 0 359 42 744 133 900 212 184 93 406 291 608 540 50
62 94 113 97 113 3 0 16 -69 29 -152 116 -751 192 -1115 293 -1408 53 -153 94
-229 175 -322 178 -203 394 -308 696 -339 213 -21 558 21 679 82 62 31 153
123 203 204 221 355 310 1157 240 2154 -9 118 -14 215 -12 217 1 1 81 -53 177
-122 96 -69 200 -140 230 -160 63 -41 116 -108 215 -274 71 -119 239 -449 295
-580 85 -197 139 -284 237 -383 161 -163 355 -237 616 -237 349 0 613 110 772
323 82 108 158 287 180 419 l6 37 64 -44 c125 -85 332 -127 527 -107 137 15
188 34 247 91 51 50 84 120 103 221 21 113 -1 364 -47 543 l-7 27 176 0 c725
0 1063 205 1166 708 29 146 36 319 16 406 -31 129 -112 241 -247 341 -61 45
-217 125 -243 125 -9 0 -16 4 -16 8 0 5 82 59 183 120 148 91 196 126 258 189
314 322 479 691 440 986 -27 200 -112 359 -277 518 -197 189 -449 320 -729
379 -147 31 -417 38 -595 15 -138 -17 -352 -67 -450 -104 -30 -12 -58 -21 -61
-21 -3 0 -1 35 4 78 14 122 1 534 -22 708 -49 362 -157 771 -282 1064 -168
393 -434 705 -814 957 -329 218 -598 320 -897 339 -292 19 -647 -82 -910 -259
l-67 -45 -16 48 c-57 172 -247 344 -486 439 -215 86 -621 138 -863 111z m509
-369 c233 -48 429 -169 562 -346 48 -64 112 -184 133 -250 7 -22 15 -43 19
-47 4 -5 56 29 116 74 131 97 235 148 370 185 93 25 115 27 305 27 184 0 218
-3 330 -27 416 -88 770 -288 1006 -569 308 -368 491 -878 555 -1548 16 -164
16 -608 0 -785 -82 -940 -383 -1683 -849 -2091 -78 -69 -171 -133 -434 -302
-46 -29 -94 -62 -107 -73 l-24 -20 24 -25 c13 -15 87 -74 164 -132 180 -136
263 -211 383 -345 389 -438 605 -895 548 -1163 -8 -40 -23 -89 -34 -110 -65
-127 -266 -268 -450 -315 -204 -52 -396 -3 -538 136 -79 78 -126 149 -213 322
-333 666 -800 1130 -1305 1298 -112 37 -238 66 -247 56 -4 -3 -14 -145 -23
-316 -24 -449 -25 -490 -36 -815 -33 -974 -45 -1176 -76 -1281 -67 -224 -239
-330 -514 -316 -321 17 -626 206 -723 449 -157 392 -257 2026 -257 4193 0
1372 43 2436 126 3120 67 556 217 816 550 955 71 29 193 64 259 73 89 12 295
6 380 -12z m-6828 -376 c318 -42 616 -141 832 -277 494 -310 804 -877 886
-1618 19 -175 19 -501 0 -688 -59 -567 -262 -1028 -500 -1138 -118 -55 -311
-74 -435 -44 -207 49 -330 223 -385 545 -32 194 -37 283 -45 970 -9 726 -14
830 -55 1025 -61 295 -195 475 -392 527 -113 30 -260 3 -381 -69 -281 -169
-557 -785 -706 -1578 -218 -1164 -187 -2760 74 -3765 164 -631 409 -1029 709
-1147 79 -31 221 -31 306 0 174 64 342 244 461 495 60 127 147 393 179 548 18
83 28 172 32 269 6 156 -3 240 -38 346 l-20 61 -52 7 c-84 10 -218 7 -437 -9
-398 -30 -617 -18 -729 38 -62 31 -67 42 -55 130 24 161 120 278 305 371 107
54 798 284 964 321 557 125 947 -102 1058 -615 30 -139 30 -427 -1 -595 -88
-475 -311 -915 -632 -1249 -261 -271 -533 -431 -859 -508 -113 -26 -418 -36
-570 -18 -298 35 -582 144 -829 318 -130 92 -357 315 -460 454 -267 358 -473
821 -615 1383 -98 385 -153 739 -199 1265 -17 199 -17 1054 0 1260 31 370 68
637 128 935 107 526 251 896 470 1205 77 109 364 416 447 478 248 185 594 320
942 366 141 19 457 20 602 1z m-4181 -570 c488 -84 880 -452 1077 -1011 153
-435 196 -1004 116 -1534 -69 -457 -207 -794 -401 -982 -202 -197 -462 -206
-644 -24 -66 66 -95 119 -118 211 -40 155 -41 188 -42 1060 0 896 -3 955 -50
1182 -27 133 -83 252 -146 310 -93 87 -251 68 -433 -52 -121 -80 -228 -194
-315 -334 -285 -460 -359 -1265 -180 -1966 131 -513 396 -911 836 -1253 65
-51 229 -167 364 -259 331 -224 418 -290 536 -408 197 -195 291 -390 313 -644
24 -275 -57 -501 -257 -713 -65 -68 -183 -166 -268 -220 -134 -86 -349 -171
-528 -210 -147 -32 -414 -32 -574 0 -306 61 -579 198 -762 382 -100 99 -167
202 -206 315 -24 68 -28 96 -29 190 0 101 2 115 28 167 39 80 111 142 194 168
164 50 371 2 504 -118 29 -26 97 -106 151 -178 54 -73 126 -158 160 -189 146
-135 340 -176 554 -115 157 45 309 152 368 260 64 118 41 257 -58 348 -95 87
-183 125 -626 272 -472 156 -742 286 -1010 486 -136 101 -328 294 -412 414
-78 111 -182 307 -232 439 -339 886 -186 2151 367 3031 158 253 401 522 598
664 237 170 494 279 742 315 101 14 288 12 383 -4z m8429 -334 c177 -27 381
-77 495 -122 208 -83 317 -217 263 -326 -32 -67 -63 -75 -248 -69 -794 28
-1045 15 -1200 -61 -172 -85 -211 -217 -235 -798 -6 -137 -17 -376 -25 -530
-29 -552 -40 -1101 -27 -1360 11 -230 30 -389 53 -447 9 -21 21 -29 60 -37 71
-16 231 -14 431 5 269 25 384 8 466 -70 41 -39 44 -45 38 -78 -10 -56 -58
-112 -119 -143 -77 -37 -186 -53 -452 -64 -305 -13 -389 -35 -419 -110 -36
-92 -41 -151 -41 -486 1 -347 12 -501 56 -720 47 -240 148 -335 356 -335 101
0 190 17 388 75 238 70 353 95 433 95 l72 0 0 -35 c0 -149 -208 -283 -587
-378 -274 -69 -527 -101 -803 -102 -172 0 -205 3 -285 23 -249 65 -375 183
-495 467 -138 324 -226 773 -275 1390 -52 672 -66 1546 -34 2225 31 678 108
1165 221 1395 156 322 571 539 1163 610 173 21 563 14 750 -14z m7419 -2015
c55 -14 140 -46 190 -70 209 -103 337 -244 391 -431 25 -86 16 -254 -18 -353
-79 -223 -277 -479 -527 -679 -228 -183 -460 -330 -721 -458 -454 -222 -972
-375 -1448 -425 -57 -6 -106 -9 -109 -6 -3 3 8 16 24 28 257 201 439 396 620
663 142 210 215 354 444 875 258 587 450 816 736 875 106 22 295 13 418 -19z
m22 -2071 c287 -55 432 -277 351 -537 -86 -274 -345 -459 -719 -514 -153 -22
-428 -15 -581 15 -236 48 -478 152 -1061 459 -230 121 -238 127 -205 133 19 4
180 22 359 39 341 33 519 61 710 111 154 41 392 119 575 189 193 74 241 89
328 105 97 18 151 18 243 0z m-2096 -687 c384 -169 1010 -554 1128 -694 123
-147 169 -353 107 -480 -47 -96 -129 -140 -249 -132 -97 7 -170 43 -263 131
-95 91 -140 160 -279 430 -165 319 -254 449 -428 623 -78 77 -150 151 -161
164 l-20 23 25 -8 c14 -4 77 -30 140 -57z"/>
<path d="M15001 8155 c-208 -47 -395 -141 -475 -240 -20 -24 -50 -73 -67 -109
-59 -126 -72 -234 -129 -1056 -133 -1923 -190 -2786 -190 -2856 0 -74 3 -86
25 -113 34 -40 103 -64 258 -91 162 -29 358 -25 477 9 310 89 557 330 755 736
345 708 466 1807 295 2675 -111 560 -336 927 -631 1029 -83 29 -230 36 -318
16z"/>
</g>
</svg>
